<svg width="45" height="45" fill="none" xmlns="http://www.w3.org/2000/svg"><circle cx="22.5" cy="22.5" r="22.5" fill="#ECF0FD"/><path d="M32.378 28.74a1.554 1.554 0 0 0-.078-.148c-.399-.712-1.161-1.586-2.287-2.622l-.024-.024-.012-.011-.012-.012h-.012c-.51-.483-.834-.807-.97-.973-.248-.316-.303-.637-.168-.961.096-.245.455-.763 1.078-1.554.328-.42.587-.755.778-1.008 1.382-1.82 1.98-2.982 1.797-3.488l-.072-.119c-.048-.07-.171-.136-.37-.195-.2-.06-.456-.07-.767-.03l-3.45.024a.451.451 0 0 0-.239.006l-.155.035-.06.03-.048.036a.532.532 0 0 0-.132.124.809.809 0 0 0-.12.208 19.297 19.297 0 0 1-1.28 2.669 25.7 25.7 0 0 1-.815 1.275c-.248.36-.455.625-.623.795-.168.17-.319.306-.455.41-.136.102-.24.146-.311.13a8.838 8.838 0 0 1-.204-.048.792.792 0 0 1-.27-.29 1.29 1.29 0 0 1-.137-.463 5.09 5.09 0 0 1-.042-.48 9.973 9.973 0 0 1 .006-.57c.008-.245.012-.411.012-.498 0-.3.006-.627.018-.979l.03-.836c.008-.206.012-.423.012-.653 0-.23-.014-.409-.042-.54a1.83 1.83 0 0 0-.126-.38.64.64 0 0 0-.245-.284 1.39 1.39 0 0 0-.401-.16c-.423-.095-.962-.146-1.617-.154-1.485-.016-2.439.079-2.862.285a1.61 1.61 0 0 0-.455.355c-.144.174-.164.27-.06.285.48.071.818.241 1.018.51l.072.142c.056.103.112.285.168.546.055.261.091.55.107.866a9.16 9.16 0 0 1 0 1.483c-.04.411-.078.732-.114.961a1.91 1.91 0 0 1-.161.558 2.27 2.27 0 0 1-.144.26.205.205 0 0 1-.06.06.905.905 0 0 1-.323.06c-.112 0-.248-.056-.407-.167a2.865 2.865 0 0 1-.497-.457 6.11 6.11 0 0 1-.581-.812c-.215-.348-.44-.76-.67-1.234l-.192-.344c-.12-.222-.284-.544-.491-.967a18.571 18.571 0 0 1-.551-1.228.783.783 0 0 0-.287-.38l-.06-.035a.82.82 0 0 0-.192-.101 1.284 1.284 0 0 0-.275-.077l-3.281.023c-.336 0-.563.076-.683.226l-.048.071a.38.38 0 0 0-.036.19c0 .087.024.194.072.32.479 1.115 1 2.191 1.563 3.227a36.155 36.155 0 0 0 1.466 2.503c.416.633.839 1.23 1.27 1.791.431.562.716.922.856 1.08.14.158.25.277.33.356l.299.284c.191.19.473.418.844.683.371.265.782.526 1.233.783.452.257.977.466 1.575.628a5.493 5.493 0 0 0 1.749.196h1.377c.28-.024.49-.11.635-.26l.047-.06a.784.784 0 0 0 .09-.22c.028-.098.042-.207.042-.326-.008-.34.018-.646.078-.919s.127-.478.203-.617a1.52 1.52 0 0 1 .462-.522.791.791 0 0 1 .095-.041c.192-.063.417-.002.677.184.26.186.503.415.73.688.228.273.501.58.82.92.32.34.6.592.839.758l.24.143c.16.095.367.182.622.261.255.079.479.099.67.06l3.066-.048c.303 0 .54-.05.707-.148.167-.1.267-.208.3-.327a.91.91 0 0 0 .005-.403 1.475 1.475 0 0 0-.084-.315Z" fill="#A1AFCC"/></svg>