<svg width="23" height="23" fill="none" xmlns="http://www.w3.org/2000/svg"><path d="M17.34 10.332a.898.898 0 1 0 0-1.797.898.898 0 0 0 0 1.797Z" fill="#fff"/><path d="M19.406 1.797h-1.168V.898a.898.898 0 1 0-1.797 0v.899h-4.087V.898a.898.898 0 1 0-1.797 0v.899H6.514V.898a.898.898 0 1 0-1.797 0v.899H3.594A3.598 3.598 0 0 0 0 5.39v14.015A3.598 3.598 0 0 0 3.594 23h6.873a.898.898 0 1 0 0-1.797H3.594a1.799 1.799 0 0 1-1.797-1.797V5.391c0-.991.806-1.797 1.797-1.797h1.123v.898a.898.898 0 1 0 1.797 0v-.898h4.043v.898a.898.898 0 0 0 1.796 0v-.898h4.088v.898a.898.898 0 1 0 1.797 0v-.898h1.168c.991 0 1.797.806 1.797 1.797v5.12a.899.899 0 0 0 1.797 0v-5.12a3.598 3.598 0 0 0-3.594-3.594Z" fill="#fff"/><path d="M17.564 12.129a5.442 5.442 0 0 0-5.435 5.435A5.442 5.442 0 0 0 17.564 23 5.442 5.442 0 0 0 23 17.564a5.442 5.442 0 0 0-5.436-5.435Zm0 9.074a3.643 3.643 0 0 1-3.638-3.639 3.643 3.643 0 0 1 3.638-3.638 3.643 3.643 0 0 1 3.64 3.638 3.643 3.643 0 0 1-3.64 3.64Z" fill="#fff"/><path d="M18.867 16.666h-.404v-.943a.898.898 0 1 0-1.797 0v1.841c0 .497.402.899.898.899h1.303a.898.898 0 1 0 0-1.797Zm-5.435-6.334a.898.898 0 1 0 0-1.797.898.898 0 0 0 0 1.797ZM9.523 14.24a.898.898 0 1 0 0-1.797.898.898 0 0 0 0 1.797Zm-3.908-3.908a.898.898 0 1 0 0-1.797.898.898 0 0 0 0 1.797Zm0 3.908a.898.898 0 1 0 0-1.797.898.898 0 0 0 0 1.797Zm0 3.908a.898.898 0 1 0 0-1.796.898.898 0 0 0 0 1.796Zm3.908 0a.898.898 0 1 0 0-1.796.898.898 0 0 0 0 1.796Zm0-7.816a.898.898 0 1 0 0-1.797.898.898 0 0 0 0 1.797Z" fill="#fff"/></svg>