<svg width="18" height="25" fill="none" xmlns="http://www.w3.org/2000/svg"><path d="M8.79 0C3.942 0 0 3.943 0 8.79a8.77 8.77 0 0 0 1.312 4.62l6.977 11.244a.732.732 0 0 0 .622.346h.006a.732.732 0 0 0 .622-.356l6.8-11.352a8.778 8.778 0 0 0 1.24-4.503C17.578 3.943 13.634 0 8.788 0Zm6.291 12.54L8.9 22.86 2.557 12.64a7.315 7.315 0 0 1-1.102-3.85c0-4.039 3.295-7.334 7.334-7.334s7.33 3.295 7.33 7.334a7.317 7.317 0 0 1-1.038 3.75Z" fill="#fff"/><path d="M8.79 4.395a4.4 4.4 0 0 0-4.395 4.394 4.389 4.389 0 0 0 4.394 4.395 4.386 4.386 0 0 0 4.395-4.395 4.4 4.4 0 0 0-4.395-4.394Zm0 7.334a2.942 2.942 0 0 1-2.94-2.94 2.95 2.95 0 0 1 2.94-2.94 2.946 2.946 0 0 1 2.934 2.94 2.936 2.936 0 0 1-2.935 2.94Z" fill="#fff"/></svg>