<svg width="220" height="65" fill="none" xmlns="http://www.w3.org/2000/svg"><path d="M219.211 58.09c0 3.525-2.822 6.38-6.313 6.38H6.321C2.83 64.47 0 61.615 0 58.09V7.217C0 3.694 2.832.83 6.32.83h206.577c3.492 0 6.312 2.865 6.312 6.387l.002 50.875Z" fill="#071451"/><path d="M45.018 32.678c-.047-5.215 4.27-7.751 4.467-7.87-2.444-3.564-6.233-4.05-7.565-4.09-3.182-.334-6.27 1.905-7.89 1.905-1.654 0-4.15-1.872-6.84-1.817-3.463.053-6.702 2.058-8.478 5.17-3.666 6.347-.932 15.674 2.58 20.804 1.758 2.513 3.81 5.318 6.498 5.22 2.629-.109 3.61-1.677 6.783-1.677 3.144 0 4.066 1.676 6.807 1.613 2.821-.045 4.598-2.524 6.293-5.059 2.03-2.88 2.846-5.716 2.878-5.861-.066-.023-5.48-2.089-5.533-8.338ZM39.84 17.344c1.415-1.769 2.382-4.174 2.114-6.616-2.047.09-4.606 1.416-6.08 3.145-1.304 1.524-2.47 4.022-2.168 6.371 2.299.172 4.66-1.16 6.135-2.9Zm92.737 28.044c0 1.685-.585 3.056-1.76 4.115-1.29 1.157-3.087 1.734-5.397 1.734-2.132 0-3.841-.41-5.134-1.234l.735-2.645a8.705 8.705 0 0 0 4.589 1.265c1.195 0 2.126-.27 2.794-.81.666-.539.998-1.262.998-2.165 0-.803-.274-1.48-.824-2.03-.546-.55-1.459-1.06-2.733-1.532-3.469-1.294-5.202-3.19-5.202-5.681 0-1.63.607-2.965 1.824-4.004 1.212-1.04 2.828-1.56 4.85-1.56 1.803 0 3.301.314 4.496.94l-.793 2.588c-1.117-.607-2.379-.91-3.792-.91-1.117 0-1.989.275-2.614.822-.529.49-.794 1.087-.794 1.794 0 .784.302 1.431.91 1.94.528.47 1.488.98 2.882 1.53 1.705.686 2.957 1.488 3.762 2.408.803.917 1.203 2.065 1.203 3.435Zm10.494-6.348h-3.498v6.936c0 1.765.616 2.646 1.852 2.646.567 0 1.038-.05 1.41-.147l.088 2.41c-.626.234-1.449.351-2.469.351-1.253 0-2.233-.382-2.94-1.146-.704-.765-1.059-2.049-1.059-3.852v-7.201h-2.084v-2.382h2.084v-2.616l3.118-.94v3.556h3.498v2.385Zm15.786 4.644c0 2.196-.628 3.998-1.882 5.408-1.314 1.452-3.059 2.175-5.234 2.175-2.097 0-3.765-.695-5.01-2.085-1.245-1.39-1.867-3.146-1.867-5.262 0-2.214.64-4.027 1.925-5.437 1.282-1.411 3.012-2.117 5.187-2.117 2.096 0 3.783.695 5.056 2.087 1.218 1.35 1.825 3.094 1.825 5.23Zm-3.293.102c0-1.317-.281-2.447-.852-3.39-.665-1.14-1.616-1.709-2.849-1.709-1.276 0-2.245.57-2.911 1.71-.57.943-.851 2.091-.851 3.449 0 1.317.281 2.447.851 3.388.687 1.14 1.645 1.71 2.882 1.71 1.212 0 2.164-.581 2.85-1.74.585-.96.88-2.102.88-3.418Zm13.611-4.336a5.517 5.517 0 0 0-1.001-.089c-1.116 0-1.98.422-2.587 1.266-.529.744-.794 1.685-.794 2.821v7.496h-3.172l.029-9.787c0-1.647-.04-3.146-.119-4.498h2.765l.116 2.734h.088c.335-.94.863-1.696 1.587-2.263.707-.51 1.471-.766 2.294-.766.294 0 .559.021.794.059v3.026Zm14.196 3.675c0 .569-.037 1.048-.116 1.44h-9.523c.037 1.411.497 2.49 1.382 3.235.802.666 1.84.999 3.114.999 1.41 0 2.697-.225 3.853-.676l.498 2.204c-1.352.59-2.948.882-4.79.882-2.215 0-3.954-.652-5.22-1.954-1.262-1.303-1.895-3.053-1.895-5.247 0-2.154.588-3.948 1.766-5.38 1.233-1.527 2.899-2.29 4.995-2.29 2.059 0 3.618.763 4.676 2.29.838 1.214 1.26 2.715 1.26 4.497Zm-3.027-.823c.021-.941-.186-1.754-.616-2.44-.55-.883-1.394-1.324-2.53-1.324-1.038 0-1.882.43-2.526 1.294-.529.686-.843 1.51-.94 2.468h6.612v.002ZM81.37 50.945h-3.38l-1.853-5.82H69.7l-1.764 5.82h-3.292l6.378-19.813h3.94l6.409 19.813Zm-5.79-8.262-1.676-5.173c-.177-.529-.509-1.773-.999-3.733h-.06c-.194.843-.508 2.087-.94 3.733l-1.645 5.173h5.32Zm22.193.942c0 2.43-.657 4.35-1.97 5.76-1.176 1.256-2.636 1.883-4.38 1.883-1.882 0-3.234-.676-4.057-2.028h-.06v7.526h-3.174V41.36c0-1.528-.04-3.095-.117-4.703h2.791l.178 2.264h.059c1.059-1.706 2.665-2.557 4.82-2.557 1.686 0 3.093.665 4.219 1.997 1.128 1.334 1.69 3.088 1.69 5.263Zm-3.234.117c0-1.391-.313-2.537-.94-3.44-.687-.94-1.609-1.411-2.764-1.411-.783 0-1.495.262-2.13.779-.638.52-1.055 1.201-1.25 2.044-.098.393-.147.714-.147.968v2.382c0 1.039.319 1.916.956 2.632.637.716 1.465 1.073 2.483 1.073 1.196 0 2.126-.461 2.792-1.381.667-.922 1-2.137 1-3.646Zm19.666-.117c0 2.43-.656 4.35-1.971 5.76-1.175 1.256-2.635 1.883-4.379 1.883-1.881 0-3.233-.676-4.055-2.028h-.06v7.526h-3.174V41.36c0-1.528-.04-3.095-.117-4.703h2.791l.177 2.264h.06c1.057-1.706 2.663-2.557 4.821-2.557 1.683 0 3.09.665 4.219 1.997 1.124 1.334 1.688 3.088 1.688 5.263Zm-3.233.117c0-1.391-.315-2.537-.943-3.44-.686-.94-1.605-1.411-2.762-1.411-.784 0-1.494.262-2.132.779-.637.52-1.052 1.201-1.247 2.044-.097.393-.148.714-.148.968v2.382c0 1.039.319 1.916.953 2.632.637.715 1.465 1.073 2.487 1.073 1.195 0 2.126-.461 2.791-1.381.667-.922 1.001-2.137 1.001-3.646ZM69.203 16.969h1.563c1.507 0 2.406.703 2.406 1.883 0 1.148-.953 1.937-2.36 1.937-1.445 0-2.445-.71-2.546-1.82h-1.688c.102 1.984 1.79 3.304 4.242 3.304 2.36 0 4.149-1.437 4.149-3.335 0-1.532-.938-2.602-2.446-2.79v-.062c1.25-.297 2.102-1.344 2.102-2.602 0-1.78-1.555-3.03-3.773-3.03-2.344 0-3.868 1.25-3.985 3.265h1.656c.102-1.117.954-1.805 2.274-1.805 1.297 0 2.101.672 2.101 1.75 0 1.086-.89 1.844-2.18 1.844h-1.515v1.46Zm10.133 3.836c-.906 0-1.5-.47-1.5-1.188 0-.703.57-1.148 1.578-1.219l2.023-.125v.649c0 1.07-.921 1.883-2.101 1.883Zm-.469 1.336c1.078 0 2.117-.578 2.594-1.493h.039V22h1.617v-5.664c0-1.648-1.273-2.703-3.265-2.703-2.032 0-3.297 1.094-3.391 2.578h1.594c.148-.734.757-1.203 1.734-1.203 1.031 0 1.648.547 1.648 1.46v.634l-2.25.132c-1.953.11-3.054.993-3.054 2.43 0 1.477 1.125 2.477 2.734 2.477Zm11.469-7.024v-1.336H84.89V22h1.68v-6.883h3.765Zm5.703-1.469c-1.187 0-2.133.602-2.617 1.547h-.031v-1.414h-1.633V24.72h1.687v-4.07h.04c.468.913 1.406 1.492 2.585 1.492 2.063 0 3.43-1.649 3.43-4.25 0-2.602-1.375-4.243-3.46-4.243Zm-.445 7.063c-1.297 0-2.156-1.11-2.156-2.82 0-1.696.867-2.82 2.156-2.82 1.336 0 2.172 1.1 2.172 2.82 0 1.726-.836 2.82-2.172 2.82Zm5.961 4.352c1.711 0 2.515-.641 3.218-2.633l3.086-8.649h-1.781l-2.086 6.688h-.023l-2.086-6.688h-1.828l2.968 8.227c0 .008-.148.492-.148.508-.258.843-.672 1.172-1.461 1.172-.141 0-.422 0-.547-.032v1.367c.125.024.555.04.688.04Zm10.336-2.907c2.039 0 3.359-1.031 3.359-2.593 0-.938-.555-1.618-1.602-1.86v-.062c.797-.203 1.313-.914 1.313-1.75 0-1.368-1.078-2.258-3.07-2.258-1.836 0-3.063.914-3.235 2.375h1.617c.11-.64.719-1.031 1.625-1.031.961 0 1.414.445 1.414 1.078 0 .718-.492 1.078-1.437 1.078h-1.18v1.242h1.203c1.118 0 1.672.375 1.672 1.195 0 .727-.601 1.227-1.679 1.227-.946 0-1.571-.39-1.743-1.102h-1.664c.149 1.516 1.485 2.461 3.407 2.461Zm6.507-.156 3.797-5.773h.063V22h1.664v-8.219h-1.664l-3.797 5.758h-.063v-5.758h-1.664V22h1.664Zm13.586-8.219h-6.836v1.336h2.579V22h1.679v-6.883h2.578v-1.336Zm4.524 1.211c1.18 0 1.976.883 2.015 2.14h-4.109c.086-1.241.914-2.14 2.094-2.14Zm2.008 4.594c-.227.719-.938 1.203-1.899 1.203-1.351 0-2.211-.945-2.211-2.375v-.102h5.805v-.578c0-2.492-1.422-4.101-3.703-4.101-2.32 0-3.805 1.719-3.805 4.297 0 2.593 1.461 4.226 3.875 4.226 1.883 0 3.305-1.07 3.539-2.57h-1.601Zm9.781-4.578c.82 0 1.265.383 1.265 1.062 0 .727-.476 1.094-1.429 1.094h-1.563v-2.156h1.727Zm-.055 3.336c1.11 0 1.656.406 1.656 1.218 0 .79-.515 1.211-1.468 1.211h-1.86v-2.43h1.672ZM144.906 22h3.782c1.781 0 2.89-.922 2.89-2.367 0-1.031-.703-1.781-1.766-1.922v-.063c.79-.148 1.399-.921 1.399-1.773 0-1.297-.969-2.094-2.57-2.094h-3.735V22Z" fill="#fff"/></svg>