<svg width="25" height="25" fill="none" xmlns="http://www.w3.org/2000/svg"><path d="M18.75 11.25a1.25 1.25 0 1 0 0-2.5 1.25 1.25 0 0 0 0 2.5Z" fill="#B7C1D8"/><path d="M21.094 1.953h-1.27V.977a.977.977 0 1 0-1.953 0v.976h-4.443V.977a.977.977 0 1 0-1.953 0v.976H7.08V.977a.977.977 0 1 0-1.953 0v.976h-1.22A3.91 3.91 0 0 0 0 5.86v15.235A3.91 3.91 0 0 0 3.906 25h7.471a.977.977 0 0 0 0-1.953h-7.47a1.955 1.955 0 0 1-1.954-1.953V5.859c0-1.077.876-1.953 1.953-1.953h1.22v.977a.977.977 0 1 0 1.954 0v-.977h4.395v.977a.977.977 0 1 0 1.953 0v-.977h4.443v.977a.977.977 0 1 0 1.953 0v-.977h1.27c1.077 0 1.953.876 1.953 1.953v5.567a.977.977 0 0 0 1.953 0V5.859a3.91 3.91 0 0 0-3.906-3.906Z" fill="#B7C1D8"/><path d="M19.375 13.75a5.631 5.631 0 0 0-5.625 5.625A5.631 5.631 0 0 0 19.375 25 5.631 5.631 0 0 0 25 19.375a5.631 5.631 0 0 0-5.625-5.625Zm0 9.39a3.77 3.77 0 0 1-3.765-3.765 3.77 3.77 0 0 1 3.765-3.765 3.77 3.77 0 0 1 3.765 3.765 3.77 3.77 0 0 1-3.765 3.765Z" fill="#B7C1D8"/><path d="M20.163 18.148h-.49v-.972c0-.511-.486-.926-1.086-.926-.6 0-1.087.415-1.087.926v1.898c0 .511.487.926 1.087.926h1.576c.6 0 1.087-.415 1.087-.926 0-.511-.487-.926-1.087-.926Zm-5.788-6.898c.345 0 .625-.56.625-1.25s-.28-1.25-.625-1.25-.625.56-.625 1.25.28 1.25.625 1.25ZM10 15c.69 0 1.25-.28 1.25-.625s-.56-.625-1.25-.625-1.25.28-1.25.625S9.31 15 10 15Zm-3.75-3.75a1.25 1.25 0 1 0 0-2.5 1.25 1.25 0 0 0 0 2.5Zm0 3.75c.69 0 1.25-.28 1.25-.625s-.56-.625-1.25-.625-1.25.28-1.25.625.56.625 1.25.625Zm0 5a1.25 1.25 0 1 0 0-2.5 1.25 1.25 0 0 0 0 2.5ZM10 20a1.25 1.25 0 1 0 0-2.5 1.25 1.25 0 0 0 0 2.5Zm0-8.75a1.25 1.25 0 1 0 0-2.5 1.25 1.25 0 0 0 0 2.5Z" fill="#B7C1D8"/></svg>