<svg width="13" height="13" fill="none" xmlns="http://www.w3.org/2000/svg"><path d="M12.994 10.26a.63.63 0 0 1-.193.55l-1.83 1.818a1.02 1.02 0 0 1-.324.234 1.335 1.335 0 0 1-.392.124 1.865 1.865 0 0 1-.261.014c-.175 0-.457-.03-.847-.09-.39-.06-.867-.206-1.43-.44-.565-.234-1.205-.586-1.92-1.054-.716-.468-1.478-1.11-2.285-1.928a15.086 15.086 0 0 1-1.597-1.817A12.952 12.952 0 0 1 .897 6.066 8.644 8.644 0 0 1 .319 4.73a7.09 7.09 0 0 1-.262-1.032 3.413 3.413 0 0 1-.055-.682c.01-.165.014-.257.014-.276.018-.128.06-.259.124-.392s.142-.241.234-.324L2.204.193A.606.606 0 0 1 2.644 0c.12 0 .225.034.317.103.092.07.17.154.234.255l1.473 2.796a.67.67 0 0 1 .068.482.859.859 0 0 1-.233.44l-.675.675a.23.23 0 0 0-.048.09.34.34 0 0 0-.02.103c.036.193.119.413.247.66.11.221.28.49.51.806.229.317.554.682.976 1.095.413.423.78.75 1.101.985.321.234.59.406.805.516.216.11.381.177.496.2l.172.034a.328.328 0 0 0 .09-.02.23.23 0 0 0 .089-.048l.784-.8a.843.843 0 0 1 .578-.22c.156 0 .28.028.372.083h.014l2.656 1.57c.192.12.307.27.344.454Z" fill="#1E1E1E"/></svg>