<svg width="45" height="45" fill="none" xmlns="http://www.w3.org/2000/svg"><circle cx="22.5" cy="22.5" r="22.5" fill="#ECF0FD"/><path d="M15.195 13h15.61c1.482 0 2.695 1.098 2.695 2.695v15.61c0 1.598-1.213 2.695-2.695 2.695h-15.61c-1.482 0-2.695-1.097-2.695-2.695v-15.61c0-1.598 1.213-2.695 2.695-2.695Zm12.603 2.333a.948.948 0 0 0-.945.946v2.263c0 .52.425.945.945.945h2.373c.52 0 .946-.425.946-.945v-2.263a.948.948 0 0 0-.946-.946h-2.373Zm3.329 6.548h-1.849c.175.57.27 1.176.27 1.801 0 3.493-2.923 6.325-6.528 6.325-3.605 0-6.527-2.832-6.527-6.325a6.1 6.1 0 0 1 .27-1.801h-1.93v8.87c0 .46.376.836.835.836h14.624c.46 0 .835-.376.835-.835V21.88Zm-8.107-2.513c-2.33 0-4.218 1.83-4.218 4.087 0 2.257 1.889 4.086 4.218 4.086 2.33 0 4.218-1.83 4.218-4.087 0-2.257-1.889-4.086-4.218-4.086Z" fill="#A1AFCC"/></svg>