<svg width="220" height="65" fill="none" xmlns="http://www.w3.org/2000/svg"><path d="M211.236.829H8.264C3.78.829.144 4.39.144 8.784v47.731c0 4.394 3.636 7.955 8.12 7.955h202.972c4.484 0 8.119-3.561 8.119-7.955V8.784c0-4.394-3.635-7.955-8.119-7.955Z" fill="#061653"/><path d="M108.716 38.705a6.044 6.044 0 1 0 6.073 6.044 5.96 5.96 0 0 0-6.073-6.044Zm0 9.712a3.669 3.669 0 1 1 3.413-3.669 3.5 3.5 0 0 1-3.413 3.67Zm-13.24-9.712a6.044 6.044 0 1 0 6.059 6.044 5.96 5.96 0 0 0-6.073-6.044h.014Zm0 9.712a3.668 3.668 0 1 1 3.4-3.669 3.498 3.498 0 0 1-3.414 3.67h.014Zm-15.77-7.85v2.56h6.143a5.361 5.361 0 0 1-1.422 3.228 6.286 6.286 0 0 1-4.736 1.878 6.826 6.826 0 0 1 0-13.653 6.542 6.542 0 0 1 4.65 1.835l1.806-1.806a8.946 8.946 0 0 0-6.442-2.66 9.4 9.4 0 1 0 0 18.787 8.533 8.533 0 0 0 6.556-2.631 8.533 8.533 0 0 0 2.219-6.002 8.345 8.345 0 0 0-.143-1.607l-8.632.072Zm64.435 1.991a5.685 5.685 0 0 0-5.176-3.853 5.693 5.693 0 0 0-4.154 1.79 5.69 5.69 0 0 0-1.535 4.254 5.92 5.92 0 0 0 3.681 5.606c.736.3 1.525.45 2.32.438a6.014 6.014 0 0 0 5.035-2.674l-2.062-1.422a3.46 3.46 0 0 1-2.973 1.678 3.072 3.072 0 0 1-2.929-1.835l8.092-3.342-.299-.64Zm-8.248 2.02a3.307 3.307 0 0 1 .837-2.427 3.318 3.318 0 0 1 2.32-1.1 2.349 2.349 0 0 1 2.247 1.28l-5.404 2.247Zm-6.57 5.859h2.659V32.66h-2.659v17.776Zm-4.352-10.381h-.1a4.256 4.256 0 0 0-3.185-1.423 6.059 6.059 0 0 0 0 12.103 4.12 4.12 0 0 0 3.185-1.422h.086v.867c0 2.318-1.237 3.555-3.228 3.555a3.341 3.341 0 0 1-3.044-2.147l-2.318.967a5.765 5.765 0 0 0 5.362 3.57c3.114 0 5.688-1.835 5.688-6.3V39.06h-2.446v.995Zm-3.043 8.361a3.681 3.681 0 0 1-2.393-6.156 3.682 3.682 0 0 1 2.393-1.182 3.416 3.416 0 0 1 3.228 3.67 3.376 3.376 0 0 1-.836 2.528 3.382 3.382 0 0 1-2.407 1.14h.015Zm34.671-15.757h-6.357v17.777h2.659v-6.74h3.712a5.534 5.534 0 0 0 5.468-3.31 5.52 5.52 0 0 0 0-4.417 5.532 5.532 0 0 0-5.468-3.31h-.014Zm0 8.533h-3.712v-6.058h3.769a3.05 3.05 0 1 1 0 6.1l-.057-.042Zm16.397-2.56a4.981 4.981 0 0 0-4.736 2.717l2.361.98a2.513 2.513 0 0 1 2.417-1.307 2.562 2.562 0 0 1 2.845 2.29v.184a5.878 5.878 0 0 0-2.774-.683c-2.545 0-5.119 1.422-5.119 3.997a4.103 4.103 0 0 0 1.378 2.886 4.114 4.114 0 0 0 3.03 1.024 3.742 3.742 0 0 0 3.413-1.706h.086v1.422h2.56v-6.84c0-3.115-2.361-4.92-5.39-4.92l-.071-.044Zm-.327 9.742c-.868 0-2.077-.441-2.077-1.508 0-1.422 1.508-1.891 2.845-1.891a4.723 4.723 0 0 1 2.417.597 3.215 3.215 0 0 1-3.114 2.844l-.071-.042Zm15.117-9.315-3.044 7.708h-.085L181.5 39.06h-2.844l4.735 10.78-2.702 5.987h2.773l7.282-16.767h-2.958ZM163.88 50.437h2.659V32.66h-2.659v17.776Z" fill="#fff"/><path d="M22.027 14.134a2.844 2.844 0 0 0-.654 1.99v31.458c-.044.723.19 1.435.654 1.991l.1.1 17.62-17.606v-.413l-17.62-17.62-.1.1Z" fill="url(#a)"/><path d="m45.577 37.94-5.83-5.873v-.413l5.83-5.887.128.07 6.982 3.968c1.991 1.124 1.991 2.973 0 4.11l-6.954 3.954-.156.07Z" fill="url(#b)"/><path d="m45.748 37.855-6.001-6.001-17.72 17.719a2.318 2.318 0 0 0 2.958.085l20.777-11.803" fill="url(#c)"/><path d="M45.748 25.852 24.97 14.05a2.319 2.319 0 0 0-2.958.085l17.733 17.72 6.002-6.002Z" fill="url(#d)"/><path opacity=".2" d="M45.577 37.727 24.971 49.459a2.375 2.375 0 0 1-2.844 0l-.1.1.1.1a2.361 2.361 0 0 0 2.844 0l20.777-11.804-.17-.128Z" fill="#000"/><path opacity=".12" d="M22.027 49.374a2.844 2.844 0 0 1-.654-1.991v.213c-.044.723.19 1.435.654 1.991l.1-.1-.1-.113Zm30.66-15.672-7.11 4.025.128.128 6.983-3.954a2.489 2.489 0 0 0 1.422-2.048 2.646 2.646 0 0 1-1.422 1.85Z" fill="#000"/><path opacity=".25" d="m24.97 14.248 27.718 15.757a2.644 2.644 0 0 1 1.422 1.848 2.488 2.488 0 0 0-1.422-2.048L24.97 14.048c-1.991-1.123-3.612-.184-3.612 2.09v.214c.042-2.29 1.635-3.228 3.612-2.104Z" fill="#fff"/><path d="M73.203 16.969h1.563c1.507 0 2.406.703 2.406 1.883 0 1.148-.953 1.937-2.36 1.937-1.445 0-2.445-.71-2.546-1.82h-1.688c.102 1.984 1.79 3.304 4.242 3.304 2.36 0 4.149-1.437 4.149-3.335 0-1.532-.938-2.602-2.446-2.79v-.062c1.25-.297 2.102-1.344 2.102-2.602 0-1.78-1.555-3.03-3.773-3.03-2.344 0-3.868 1.25-3.985 3.265h1.656c.102-1.117.954-1.805 2.274-1.805 1.297 0 2.101.672 2.101 1.75 0 1.086-.89 1.844-2.18 1.844h-1.515v1.46Zm10.133 3.836c-.906 0-1.5-.47-1.5-1.188 0-.703.57-1.148 1.578-1.219l2.023-.125v.649c0 1.07-.921 1.883-2.101 1.883Zm-.469 1.336c1.078 0 2.117-.578 2.594-1.493h.039V22h1.617v-5.664c0-1.648-1.273-2.703-3.265-2.703-2.032 0-3.297 1.094-3.391 2.578h1.594c.148-.734.757-1.203 1.734-1.203 1.031 0 1.648.547 1.648 1.46v.634l-2.25.132c-1.953.11-3.054.993-3.054 2.43 0 1.477 1.125 2.477 2.734 2.477Zm11.469-7.024v-1.336H88.89V22h1.68v-6.883h3.765Zm5.703-1.469c-1.187 0-2.133.602-2.617 1.547h-.031v-1.414h-1.633V24.72h1.687v-4.07h.04c.468.913 1.406 1.492 2.585 1.492 2.063 0 3.43-1.649 3.43-4.25 0-2.602-1.375-4.243-3.461-4.243Zm-.445 7.063c-1.297 0-2.156-1.11-2.156-2.82 0-1.696.867-2.82 2.156-2.82 1.336 0 2.172 1.1 2.172 2.82 0 1.726-.836 2.82-2.172 2.82Zm5.961 4.352c1.711 0 2.515-.641 3.218-2.633l3.086-8.649h-1.781l-2.086 6.688h-.023l-2.086-6.688h-1.828l2.968 8.227c0 .008-.148.492-.148.508-.258.843-.672 1.172-1.461 1.172-.141 0-.422 0-.547-.032v1.367c.125.024.555.04.688.04Zm10.336-2.907c2.039 0 3.359-1.031 3.359-2.593 0-.938-.555-1.618-1.602-1.86v-.062c.797-.203 1.313-.914 1.313-1.75 0-1.368-1.078-2.258-3.07-2.258-1.836 0-3.063.914-3.235 2.375h1.617c.11-.64.719-1.031 1.625-1.031.961 0 1.414.445 1.414 1.078 0 .718-.492 1.078-1.437 1.078h-1.18v1.242h1.203c1.118 0 1.672.375 1.672 1.195 0 .727-.601 1.227-1.679 1.227-.946 0-1.571-.39-1.743-1.102h-1.664c.149 1.516 1.485 2.461 3.407 2.461Zm6.507-.156 3.797-5.773h.063V22h1.664v-8.219h-1.664l-3.797 5.758h-.063v-5.758h-1.664V22h1.664Zm13.586-8.219h-6.836v1.336h2.579V22h1.679v-6.883h2.578v-1.336Zm4.524 1.211c1.18 0 1.976.883 2.015 2.14h-4.109c.086-1.241.914-2.14 2.094-2.14Zm2.008 4.594c-.227.719-.938 1.203-1.899 1.203-1.351 0-2.211-.945-2.211-2.375v-.102h5.805v-.578c0-2.492-1.422-4.101-3.703-4.101-2.32 0-3.805 1.719-3.805 4.297 0 2.593 1.461 4.226 3.875 4.226 1.883 0 3.305-1.07 3.539-2.57h-1.601Zm9.781-4.578c.82 0 1.265.383 1.265 1.062 0 .727-.476 1.094-1.429 1.094h-1.563v-2.156h1.727Zm-.055 3.336c1.11 0 1.656.406 1.656 1.218 0 .79-.515 1.211-1.468 1.211h-1.86v-2.43h1.672ZM148.906 22h3.782c1.781 0 2.89-.922 2.89-2.367 0-1.031-.703-1.781-1.766-1.922v-.063c.79-.148 1.399-.921 1.399-1.773 0-1.297-.969-2.094-2.57-2.094h-3.735V22Z" fill="#fff"/><defs><linearGradient id="a" x1="38.182" y1="15.798" x2="14.319" y2="39.661" gradientUnits="userSpaceOnUse"><stop stop-color="#00A0FF"/><stop offset=".01" stop-color="#00A1FF"/><stop offset=".26" stop-color="#00BEFF"/><stop offset=".51" stop-color="#00D2FF"/><stop offset=".76" stop-color="#00DFFF"/><stop offset="1" stop-color="#00E3FF"/></linearGradient><linearGradient id="b" x1="55.29" y1="31.853" x2="20.889" y2="31.853" gradientUnits="userSpaceOnUse"><stop stop-color="#FFE000"/><stop offset=".41" stop-color="#FFBD00"/><stop offset=".78" stop-color="orange"/><stop offset="1" stop-color="#FF9C00"/></linearGradient><linearGradient id="c" x1="42.491" y1="35.124" x2="10.124" y2="67.477" gradientUnits="userSpaceOnUse"><stop stop-color="#FF3A44"/><stop offset="1" stop-color="#C31162"/></linearGradient><linearGradient id="d" x1="17.561" y1="3.667" x2="32.01" y2="18.116" gradientUnits="userSpaceOnUse"><stop stop-color="#32A071"/><stop offset=".07" stop-color="#2DA771"/><stop offset=".48" stop-color="#15CF74"/><stop offset=".8" stop-color="#06E775"/><stop offset="1" stop-color="#00F076"/></linearGradient></defs></svg>