<svg width="45" height="45" viewBox="0 0 45 45" fill="none" xmlns="http://www.w3.org/2000/svg">
<circle cx="22.5" cy="22.5" r="22.5" fill="#ECF0FD"/>
<path d="M19.8776 14.2607C19.8776 14.8151 19.8776 17.2897 19.8776 17.2897H17.5V20.9935H19.8776V32H24.7617V20.9938H28.0391C28.0391 20.9938 28.3461 19.2179 28.4948 17.276C28.0683 17.276 24.7801 17.276 24.7801 17.276C24.7801 17.276 24.7801 15.1212 24.7801 14.7436C24.7801 14.365 25.3127 13.8559 25.839 13.8559C26.3643 13.8559 27.4731 13.8559 28.5 13.8559C28.5 13.3516 28.5 11.6092 28.5 10C27.1291 10 25.5694 10 24.8819 10C19.7569 9.99974 19.8776 13.7073 19.8776 14.2607Z" fill="#A1AFCC"/>
</svg>
