<svg width="45" height="45" viewBox="0 0 45 45" fill="none" xmlns="http://www.w3.org/2000/svg">
<circle cx="22.5" cy="22.5" r="22.5" fill="#ECF0FD"/>
<path d="M32.378 28.7404C32.3502 28.681 32.3242 28.6316 32.3001 28.5921C31.901 27.8801 31.1385 27.0062 30.0128 25.9701L29.9891 25.9464L29.9771 25.9348L29.9651 25.9228H29.953C29.4422 25.4404 29.1186 25.116 28.9832 24.9499C28.7353 24.6335 28.6798 24.3133 28.8152 23.9888C28.9109 23.7437 29.2705 23.2259 29.893 22.4349C30.2205 22.0157 30.4798 21.6797 30.6713 21.4266C32.0525 19.6074 32.6514 18.445 32.4677 17.9388L32.3963 17.8205C32.3484 17.7492 32.2246 17.6841 32.0253 17.6247C31.8255 17.5654 31.5701 17.5556 31.2586 17.5951L27.8099 17.6187C27.754 17.5991 27.6742 17.6009 27.5703 17.6247C27.4665 17.6484 27.4146 17.6604 27.4146 17.6604L27.3546 17.6901L27.3069 17.7258C27.267 17.7494 27.2231 17.7909 27.1751 17.8502C27.1274 17.9093 27.0875 17.9787 27.0557 18.0578C26.6802 19.0148 26.2533 19.9045 25.7742 20.727C25.4788 21.2174 25.2075 21.6425 24.9597 22.0024C24.7123 22.3621 24.5047 22.6272 24.3372 22.7971C24.1694 22.9671 24.018 23.1034 23.882 23.2063C23.7463 23.3093 23.6426 23.3528 23.5708 23.3369C23.4989 23.321 23.4312 23.3052 23.367 23.2894C23.2554 23.2182 23.1655 23.1213 23.0978 22.9987C23.0297 22.8761 22.9839 22.7219 22.96 22.536C22.9362 22.35 22.9221 22.19 22.918 22.0555C22.9143 21.9212 22.916 21.7312 22.9241 21.486C22.9324 21.2408 22.9362 21.0748 22.9362 20.9878C22.9362 20.6872 22.9421 20.361 22.9539 20.009C22.966 19.6571 22.9758 19.3782 22.984 19.1728C22.9921 18.9672 22.9959 18.7496 22.9959 18.5202C22.9959 18.2909 22.9818 18.111 22.9539 17.9804C22.9264 17.85 22.8842 17.7235 22.8285 17.6008C22.7725 17.4782 22.6906 17.3834 22.583 17.3161C22.4753 17.2488 22.3413 17.1955 22.1819 17.1558C21.7587 17.061 21.2199 17.0097 20.5651 17.0017C19.0803 16.9859 18.1262 17.0809 17.7031 17.2865C17.5354 17.3734 17.3837 17.4921 17.2481 17.6423C17.1043 17.8164 17.0843 17.9113 17.188 17.927C17.6671 17.9981 18.0063 18.1681 18.2059 18.437L18.2778 18.5795C18.3338 18.6823 18.3896 18.8643 18.4455 19.1252C18.5014 19.3862 18.5374 19.6748 18.5533 19.991C18.5931 20.5685 18.5931 21.0628 18.5533 21.474C18.5133 21.8853 18.4755 22.2056 18.4395 22.435C18.4035 22.6643 18.3496 22.8502 18.2778 22.9925C18.2059 23.1348 18.158 23.2219 18.134 23.2534C18.1101 23.285 18.0901 23.3049 18.0743 23.3127C17.9705 23.3521 17.8626 23.3722 17.7509 23.3722C17.639 23.3722 17.5034 23.3168 17.3437 23.206C17.1841 23.0952 17.0185 22.943 16.8468 22.7492C16.6752 22.5554 16.4815 22.2845 16.2659 21.9366C16.0505 21.5886 15.8269 21.1774 15.5954 20.7029L15.4038 20.3587C15.2841 20.1373 15.1205 19.815 14.9129 19.392C14.7052 18.9687 14.5216 18.5594 14.362 18.1639C14.2982 17.9978 14.2024 17.8714 14.0747 17.7844L14.0147 17.7487C13.9749 17.7171 13.9109 17.6836 13.8232 17.6479C13.7353 17.6122 13.6436 17.5866 13.5477 17.5708L10.2666 17.5944C9.93126 17.5944 9.70376 17.6697 9.58397 17.82L9.53603 17.8911C9.51208 17.9307 9.5 17.9939 9.5 18.081C9.5 18.168 9.52395 18.2747 9.57189 18.4012C10.0509 19.5164 10.5718 20.592 11.1346 21.6281C11.6974 22.6641 12.1864 23.4987 12.6015 24.131C13.0166 24.7638 13.4397 25.361 13.8708 25.9224C14.302 26.484 14.5873 26.8438 14.727 27.0019C14.8668 27.1603 14.9766 27.2788 15.0564 27.3578L15.3558 27.6425C15.5474 27.8324 15.8288 28.0597 16.2 28.3246C16.5713 28.5897 16.9824 28.8506 17.4335 29.1079C17.8846 29.3647 18.4095 29.5743 19.0083 29.7364C19.607 29.8986 20.1898 29.9638 20.7567 29.9323H22.1338C22.4131 29.9084 22.6247 29.8214 22.7686 29.6713L22.8162 29.6118C22.8482 29.5646 22.8782 29.4913 22.9059 29.3926C22.9339 29.2937 22.9479 29.1848 22.9479 29.0664C22.9397 28.7263 22.9658 28.4199 23.0255 28.1471C23.0852 27.8743 23.1533 27.6687 23.2293 27.5302C23.3054 27.3918 23.3912 27.2751 23.4867 27.1804C23.5824 27.0855 23.6506 27.0281 23.6906 27.0083C23.7304 26.9884 23.7622 26.9749 23.7861 26.9668C23.9777 26.9035 24.2032 26.9648 24.4629 27.1508C24.7224 27.3367 24.9658 27.5662 25.1935 27.8389C25.421 28.1119 25.6944 28.4182 26.0137 28.7582C26.3332 29.0984 26.6125 29.3512 26.8519 29.5175L27.0913 29.6599C27.2512 29.7549 27.4588 29.8419 27.7143 29.921C27.9694 30 28.1928 30.0198 28.3847 29.9802L31.4502 29.9329C31.7534 29.9329 31.9894 29.8831 32.1567 29.7845C32.3244 29.6856 32.424 29.5767 32.4562 29.4582C32.4882 29.3396 32.4899 29.2051 32.4622 29.0547C32.4338 28.9046 32.4059 28.7997 32.378 28.7404Z" fill="#A1AFCC"/>
</svg>
