<svg width="45" height="45" viewBox="0 0 45 45" fill="none" xmlns="http://www.w3.org/2000/svg">
<circle cx="22.5" cy="22.5" r="22.5" fill="#ECF0FD"/>
<path d="M15.1955 13H30.8048C32.2871 13 33.5 14.0975 33.5 15.6952V31.305C33.5 32.9027 32.2871 34.0002 30.8048 34.0002H15.1955C13.7126 34.0002 12.5 32.9027 12.5 31.305V15.6952C12.5 14.0975 13.7126 13 15.1955 13ZM27.7977 15.3332C27.2777 15.3332 26.8527 15.7584 26.8527 16.2787V18.5416C26.8527 19.0617 27.2777 19.4871 27.7977 19.4871H30.1713C30.6913 19.4871 31.1168 19.0617 31.1168 18.5416V16.2787C31.1168 15.7584 30.6913 15.3332 30.1713 15.3332H27.7977ZM31.1267 21.8809H29.2784C29.4533 22.4519 29.5479 23.0567 29.5479 23.6824C29.5479 27.1754 26.625 30.007 23.0201 30.007C19.4153 30.007 16.4928 27.1754 16.4928 23.6824C16.4928 23.0563 16.5873 22.4517 16.7624 21.8809H14.8336V30.7517C14.8336 31.2108 15.2093 31.5866 15.6685 31.5866H30.2922C30.7515 31.5866 31.1271 31.211 31.1271 30.7517L31.1267 21.8809ZM23.0198 19.3679C20.6907 19.3679 18.8023 21.1974 18.8023 23.4545C18.8023 25.7116 20.6907 27.5411 23.0198 27.5411C25.3492 27.5411 27.2378 25.7116 27.2378 23.4545C27.2378 21.1974 25.3494 19.3679 23.0198 19.3679Z" fill="#A1AFCC"/>
</svg>
