<svg width="12" height="10" viewBox="0 0 12 10" fill="none" xmlns="http://www.w3.org/2000/svg">
<path d="M0.674537 4.05587L0.655805 4.05998H8.68566L6.16136 1.52178C6.03776 1.39786 5.96995 1.23 5.96995 1.05381C5.96995 0.877617 6.03776 0.710923 6.16136 0.58671L6.55415 0.192438C6.67766 0.0685179 6.84224 0 7.01775 0C7.19336 0 7.35805 0.0680286 7.48156 0.191948L11.8087 4.53295C11.9327 4.65736 12.0005 4.82308 12 4.99936C12.0005 5.17663 11.9327 5.34244 11.8087 5.46666L7.48156 9.80805C7.35805 9.93187 7.19346 10 7.01775 10C6.84224 10 6.67766 9.93178 6.55415 9.80805L6.16136 9.41378C6.03776 9.29006 5.96995 9.12483 5.96995 8.94864C5.96995 8.77255 6.03776 8.61604 6.16136 8.49221L8.71414 5.93982H0.665561C0.303903 5.93982 0 5.62709 0 5.26443V4.70679C0 4.34414 0.312879 4.05587 0.674537 4.05587Z" fill="white"/>
</svg>
